<svg version="1.1" xmlns="http://www.w3.org/2000/svg" style="display: block;" viewBox="0 0 2048 2048" width="1024" height="1024" preserveAspectRatio="none" xmlns:c2pa="http://c2pa.org/manifest"><metadata><c2pa:manifest>AAAMZ2p1bWIAAAAeanVtZGMycGEAEQAQgAAAqgA4m3EDYzJwYQAAAAxBanVtYgAAAEdqdW1kYzJtYQARABCAAACqADibcQN1cm46YzJwYTo0NzcwZTc3Yi1iOTNjLTRhOTYtYjJlZC1mNGNkYzMyMDdiYWQAAAAB4mp1bWIAAAApanVtZGMyYXMAEQAQgAAAqgA4m3EDYzJwYS5hc3NlcnRpb25zAAAAAO1qdW1iAAAAQWp1bWRjYm9yABEAEIAAAKoAOJtxE2MycGEuYWN0aW9ucy52MgAAAAAYYzJzaC0okAHLhI2PpC1Oefp9VYEAAACkY2JvcqFnYWN0aW9uc4GjZmFjdGlvbmxjMnBhLmNyZWF0ZWRxZGlnaXRhbFNvdXJjZVR5cGV4Rmh0dHA6Ly9jdi5pcHRjLm9yZy9uZXdzY29kZXMvZGlnaXRhbHNvdXJjZXR5cGUvdHJhaW5lZEFsZ29yaXRobWljTWVkaWFrZGVzY3JpcHRpb252Q3JlYXRlZCBieSBSZWNyYWZ0IEFJLgAAAMRqdW1iAAAAQGp1bWRjYm9yABEAEIAAAKoAOJtxE2MycGEuaGFzaC5kYXRhAAAAABhjMnNoqWX1vsS8sYu/VLKUG8FPjgAAAHxjYm9ypWpleGNsdXNpb25zgaJlc3RhcnQY22ZsZW5ndGgZEIxkbmFtZW5qdW1iZiBtYW5pZmVzdGNhbGdmc2hhMjU2ZGhhc2hYIM3XXft/vcuNLow4dL5vPvn6NJ/s7WlfgEdC27gXR4BtY3BhZEkAAAAAAAAAAAAAAAI0anVtYgAAACdqdW1kYzJjbAARABCAAACqADibcQNjMnBhLmNsYWltLnYyAAAAAgVjYm9ypmppbnN0YW5jZUlEeCx4bXA6aWlkOmI0MDIzZTg4LTdiYmQtNGRlMS05ZWYwLWFlNjAxNmQyZWQzYnRjbGFpbV9nZW5lcmF0b3JfaW5mb6NkbmFtZWpyZWNyYWZ0LmFpZ3ZlcnNpb254KDgxY2U4MmUyYzVjM2NiZmJlOGM2ZmJlMTc5ZDVmOGQ5MWM0MDljZTF3b3JnLmNvbnRlbnRhdXRoLmMycGFfcnNmMC45MC43aXNpZ25hdHVyZXhNc2VsZiNqdW1iZj0vYzJwYS91cm46YzJwYTo0NzcwZTc3Yi1iOTNjLTRhOTYtYjJlZC1mNGNkYzMyMDdiYWQvYzJwYS5zaWduYXR1cmVyY3JlYXRlZF9hc3NlcnRpb25zgqJjdXJseCpzZWxmI2p1bWJmPWMycGEuYXNzZXJ0aW9ucy9jMnBhLmFjdGlvbnMudjJkaGFzaFggcAyYNjSWDiugsnZvzzFi7KaCJJoHkoBkkoUyoX/CRSyiY3VybHgpc2VsZiNqdW1iZj1jMnBhLmFzc2VydGlvbnMvYzJwYS5oYXNoLmRhdGFkaGFzaFggOTipJqtczssReZXnbfs7LWamU0lfe61Y3u1bC6IXPDpoZGM6dGl0bGV4GlJlY3JhZnQgQUkgR2VuZXJhdGVkIEltYWdlY2FsZ2ZzaGEyNTYAAAfcanVtYgAAAChqdW1kYzJjcwARABCAAACqADibcQNjMnBhLnNpZ25hdHVyZQAAAAesY2JvctKEWQOwogEmGCGCWQHnMIIB4zCCAYmgAwIBAgIJALfeWmNDUW56MAoGCCqGSM49BAMCMEAxHzAdBgNVBAMMFlJlY3JhZnQgU3RhZ2luZyBEZXYgQ0ExEDAOBgNVBAoMB1JlY3JhZnQxCzAJBgNVBAYTAlVTMB4XDTI2MDYxMjE5NDM1MFoXDTI3MDYxMjE5NDM1MFowNzELMAkGA1UEBhMCVVMxEzARBgNVBAoTClJlY3JhZnQgQUkxEzARBgNVBAMTCnJlY3JhZnQuYWkwWTATBgcqhkjOPQIBBggqhkjOPQMBBwNCAARKaTVbACsg/DeG3LeOxYdID/VA6EFG73E6Oknb+KIiCFJygRUz4ueN2z/t2qYb6CIUvS8RvgOiiClfoqsYtw81o3UwczAMBgNVHRMBAf8EAjAAMA4GA1UdDwEB/wQEAwIGwDATBgNVHSUEDDAKBggrBgEFBQcDBDAdBgNVHQ4EFgQULzHpBen96SL1y4IPHa8MkMshXf0wHwYDVR0jBBgwFoAUAgsqOBrKqpdK//m/kxZo7ZR4ebcwCgYIKoZIzj0EAwIDSAAwRQIgU8hKW0aXvvk8SQgVFNkax69Ym9ae8GsT2RZTQw+B51ACIQC0D4BkEoRD4N0r2ZRkNy0HZaW3WICy/QZGN95ilF4yzFkBvTCCAbkwggFfoAMCAQICCQCc+Wg7T6ATbzAKBggqhkjOPQQDAjBAMR8wHQYDVQQDDBZSZWNyYWZ0IFN0YWdpbmcgRGV2IENBMRAwDgYDVQQKDAdSZWNyYWZ0MQswCQYDVQQGEwJVUzAeFw0yNjA2MTIxOTQwMTZaFw0yODA2MTExOTQwMTZaMEAxHzAdBgNVBAMMFlJlY3JhZnQgU3RhZ2luZyBEZXYgQ0ExEDAOBgNVBAoMB1JlY3JhZnQxCzAJBgNVBAYTAlVTMFkwEwYHKoZIzj0CAQYIKoZIzj0DAQcDQgAEQ9IQBlcVbKaKPYrQSfOhL/00s7xUDC7RinIuLO/I1k99y9yh6oWF9kPxaP+tx1v1PeOL3yrVquJ730H0ZGiDyqNCMEAwDwYDVR0TAQH/BAUwAwEB/zAOBgNVHQ8BAf8EBAMCAYYwHQYDVR0OBBYEFAILKjgayqqXSv/5v5MWaO2UeHm3MAoGCCqGSM49BAMCA0gAMEUCIFQwNImLlYDeQhjgF+ZiqTbgcuzSqmOJw3Q2lQ/hu83FAiEA9O8cLm/xfoVLqB4jtdbuHzi3WL+p2RN+DRGkwpYswVuhY3BhZFkDpAAAAAAAAAAAAAAAAAAAAAAAAAAAAAAAAAAAAAAAAAAAAAAAAAAAAAAAAAAAAAAAAAAAAAAAAAAAAAAAAAAAAAAAAAAAAAAAAAAAAAAAAAAAAAAAAAAAAAAAAAAAAAAAAAAAAAAAAAAAAAAAAAAAAAAAAAAAAAAAAAAAAAAAAAAAAAAAAAAAAAAAAAAAAAAAAAAAAAAAAAAAAAAAAAAAAAAAAAAAAAAAAAAAAAAAAAAAAAAAAAAAAAAAAAAAAAAAAAAAAAAAAAAAAAAAAAAAAAAAAAAAAAAAAAAAAAAAAAAAAAAAAAAAAAAAAAAAAAAAAAAAAAAAAAAAAAAAAAAAAAAAAAAAAAAAAAAAAAAAAAAAAAAAAAAAAAAAAAAAAAAAAAAAAAAAAAAAAAAAAAAAAAAAAAAAAAAAAAAAAAAAAAAAAAAAAAAAAAAAAAAAAAAAAAAAAAAAAAAAAAAAAAAAAAAAAAAAAAAAAAAAAAAAAAAAAAAAAAAAAAAAAAAAAAAAAAAAAAAAAAAAAAAAAAAAAAAAAAAAAAAAAAAAAAAAAAAAAAAAAAAAAAAAAAAAAAAAAAAAAAAAAAAAAAAAAAAAAAAAAAAAAAAAAAAAAAAAAAAAAAAAAAAAAAAAAAAAAAAAAAAAAAAAAAAAAAAAAAAAAAAAAAAAAAAAAAAAAAAAAAAAAAAAAAAAAAAAAAAAAAAAAAAAAAAAAAAAAAAAAAAAAAAAAAAAAAAAAAAAAAAAAAAAAAAAAAAAAAAAAAAAAAAAAAAAAAAAAAAAAAAAAAAAAAAAAAAAAAAAAAAAAAAAAAAAAAAAAAAAAAAAAAAAAAAAAAAAAAAAAAAAAAAAAAAAAAAAAAAAAAAAAAAAAAAAAAAAAAAAAAAAAAAAAAAAAAAAAAAAAAAAAAAAAAAAAAAAAAAAAAAAAAAAAAAAAAAAAAAAAAAAAAAAAAAAAAAAAAAAAAAAAAAAAAAAAAAAAAAAAAAAAAAAAAAAAAAAAAAAAAAAAAAAAAAAAAAAAAAAAAAAAAAAAAAAAAAAAAAAAAAAAAAAAAAAAAAAAAAAAAAAAAAAAAAAAAAAAAAAAAAAAAAAAAAAAAAAAAAAAAAAAAAAAAAAAAAAAAAAAAAAAAAAAAAAAAAAAAAAAAAAAAAAAAAAAAAAAAAAAAAAAAAAAAAAAAAAAAAAAAAAAAAAAAAAAAAAAAAAAAAAAAAAAAAAAAAAAAAAAAAAAAAAAAAAAAAAAAAAAAAA9lhAuC908HOiJz7A9MrSt1VpO0zKsgx7Aw06wA8X+cPF5Oxz7Z6QYrpMq3k/STJmKafPKqUX09sY49TmcN7zHKlsoQ==</c2pa:manifest></metadata>
<path transform="translate(0,0)" fill="rgb(237,224,253)" d="M 0 0 L 2048 0 L 2048 1059.98 L 2048 1111.98 L 2048 2048 L 498.87 2048 L 63.5377 2048 L 0 2048 L 0 2009.73 L 0 1954.21 L 0 0 z"/>
<path transform="translate(0,0)" fill="rgb(46,20,87)" d="M 0 1954.21 C 67.2191 1925.75 132.84 1894.81 199.837 1866.14 C 269.189 1910.3 341.278 1950.95 410.942 1994.66 C 439.957 2012.87 470.06 2029.67 498.87 2048 L 63.5377 2048 L 0 2048 L 0 2009.73 L 0 1954.21 z"/>
<path transform="translate(0,0)" fill="rgb(237,224,253)" d="M 0 2009.73 C 16.6389 2019.16 32.8285 2030.3 49.6105 2039.63 C 54.0974 2042.12 59.2925 2045.2 63.5377 2048 L 0 2048 L 0 2009.73 z"/>
<path transform="translate(0,0)" fill="rgb(46,20,87)" d="M 2048 1059.98 L 2048 1111.98 C 2033.87 1105.6 2008.93 1091.71 1994.85 1083.96 C 2004.92 1078.81 2037.46 1064.13 2048 1059.98 z"/>
<path transform="translate(0,0)" fill="rgb(46,20,87)" d="M 1024.1 729.604 C 1031.2 774.197 1045.1 821.821 1066.07 861.936 C 1103.51 933.548 1167.21 963.727 1240.62 986.453 C 1252.99 990.281 1265.83 993.084 1278.37 996.68 L 1278.31 997.554 C 1222.03 1012.9 1182.63 1020.47 1131.72 1055.2 C 1065.75 1100.21 1037.01 1187.8 1023.94 1263.73 C 1019 1218.7 996.579 1153.6 972.788 1115.46 C 926.084 1040.59 846.194 1015.63 765.837 996.912 C 932.192 956.742 992.672 902.542 1024.1 729.604 z"/>
<path transform="translate(0,0)" fill="rgb(46,20,87)" d="M 502.907 1733.91 C 540.016 1757.79 580.934 1781.03 619.043 1803.76 L 778.422 1899.02 C 718.461 1929.7 652.777 1967.25 593.534 2000.24 L 581.503 1992.72 C 534.025 1965.22 487.576 1936.2 440.445 1908.45 L 359.301 1860.1 C 339.532 1848.37 317.341 1835.82 298.302 1823.23 C 322.767 1814.55 347.319 1801.69 371.288 1791.56 C 415.19 1773.01 459.054 1752.27 502.907 1733.91 z"/>
<path transform="translate(0,0)" fill="rgb(46,20,87)" d="M 778.415 1614.83 C 780.368 1615 780.045 1614.72 781.39 1615.51 L 1027 1761.42 C 972.217 1790.04 915.794 1826.71 860.852 1854.47 L 848.608 1847.37 L 593.171 1696.25 C 653.706 1668.19 717.184 1641.75 778.415 1614.83 z"/>
<path transform="translate(0,0)" fill="rgb(46,20,87)" d="M 1026.83 1507.01 C 1036.8 1513.7 1051.19 1521.65 1061.88 1527.97 C 1084.14 1541.22 1106.5 1554.3 1128.97 1567.2 C 1169.38 1590.39 1209.32 1614.43 1249.82 1637.39 C 1200.28 1664.93 1150.98 1692.89 1101.92 1721.27 L 1092.61 1715.68 L 947.547 1630.92 C 919.536 1614.36 889.847 1596.12 861.414 1580.62 C 916.422 1555.8 971.56 1531.26 1026.83 1507.01 z"/>
<path transform="translate(0,0)" fill="rgb(46,20,87)" d="M 1244.43 1409.84 C 1249.03 1411.56 1261.11 1418.65 1265.83 1421.28 L 1306.53 1444.08 L 1445.9 1522.21 C 1404.34 1548.99 1357.9 1572.84 1315.79 1599.51 L 1307.14 1594.27 C 1274.37 1576.67 1238.47 1554.04 1205.75 1535.15 C 1171.62 1515.46 1132.26 1494.31 1099.19 1473.52 C 1147.24 1453.68 1196.62 1430.89 1244.43 1409.84 z"/>
<path transform="translate(0,0)" fill="rgb(46,20,87)" d="M 1444.9 1318.96 C 1454.67 1325.7 1484.71 1340.51 1496.39 1346.75 L 1564.17 1383.38 C 1584.11 1394.01 1605.64 1404.93 1624.91 1416.49 L 1509.52 1485.89 L 1503.04 1482.13 C 1440.52 1447.62 1378.35 1412.46 1316.56 1376.65 C 1356.6 1356.32 1405.91 1339.45 1444.9 1318.96 z"/>
<path transform="translate(0,0)" fill="rgb(46,20,87)" d="M 1622.82 1241.97 C 1626.9 1241.78 1761.62 1313.3 1779.44 1322.4 C 1775.69 1324.94 1771.32 1327.36 1767.4 1329.73 C 1738.68 1347.14 1710.77 1365.69 1681.76 1382.62 L 1673.41 1378.24 C 1619.53 1349.72 1565.94 1320.68 1512.62 1291.12 C 1549.09 1274.38 1586.08 1259.05 1622.82 1241.97 z"/>
<path transform="translate(0,0)" fill="rgb(46,20,87)" d="M 1788.21 1170.86 C 1792.55 1172.37 1820.05 1186.95 1825.93 1189.94 L 1916.79 1236.29 C 1889.65 1255.29 1858.93 1272.49 1831.01 1290.56 C 1829.18 1291.74 1825.76 1289.06 1824.1 1288.1 C 1779.86 1263.23 1733.02 1240.72 1689.25 1214.93 C 1699.11 1209.79 1713.77 1203.88 1724.44 1199.19 L 1788.21 1170.86 z"/>
<path transform="translate(0,0)" fill="rgb(46,20,87)" d="M 1938.46 1106.89 C 1945.5 1109.39 1961.16 1118.11 1969.02 1121.86 C 1993.42 1133.48 2017.65 1146.22 2042.4 1157.09 C 2015.81 1172.79 1990.02 1190.04 1963.95 1206.56 C 1961.93 1207.84 1959.34 1205.96 1957.44 1205.07 C 1933.59 1191.06 1908.05 1178.87 1883.98 1165.15 C 1872.65 1158.7 1860.51 1152.22 1848.79 1146.61 C 1878.58 1133.15 1908.47 1119.91 1938.46 1106.89 z"/>
<path transform="translate(0,0)" fill="rgb(108,43,217)" d="M 1278.37 996.68 C 1279.14 996.703 1280.33 996.21 1280.85 996.996 C 1280.58 997.828 1278.69 997.551 1278.31 997.554 L 1278.37 996.68 z"/>
</svg>