<svg version="1.1" xmlns="http://www.w3.org/2000/svg" style="display: block;" viewBox="0 0 2048 2048" width="1024" height="1024" preserveAspectRatio="none" xmlns:c2pa="http://c2pa.org/manifest">
<path transform="translate(0,0)" fill="#EDE0FD" d="M 0 0 L 2048 0 L 2048 1771.88 L 2048 2048 L 0 2048 L 0 1810.98 L 0 0 z"/>
<path transform="translate(0,0)" fill="#EDE0FD" d="M 559.022 1715.11 L 1218.77 1714.94 L 1397.55 1714.97 C 1429.4 1715 1464.04 1715.77 1495.68 1714.94 C 1503.48 1720.2 1509.53 1731.02 1516.55 1739.24 C 1533.05 1758.53 1550.98 1785.47 1570.08 1801.8 C 1572.08 1803.51 1580.64 1803.71 1583.51 1803.89 C 1589.86 1802.73 1630.35 1802.95 1638.33 1803.1 L 1638.03 1908.48 L 1653.98 1908.95 C 1654.07 1874.15 1653.21 1837.61 1653.8 1803.05 C 1740.25 1798.5 1826.77 1795.42 1913.32 1793.81 C 1957.62 1792.61 2001.94 1792.22 2046.25 1792.63 C 2046.5 1785.82 2046.43 1778.47 2048 1771.88 L 2048 2048 L 0 2048 L 0 1810.98 L 233.128 1809.94 C 268.493 1810.16 303.861 1809.92 339.22 1809.22 C 355.996 1809 376.383 1809.32 392.996 1808.2 C 393.225 1841.77 393.232 1875.34 393.02 1908.91 L 407.197 1909.01 C 409.255 1877.92 407.073 1839.74 407.727 1807.95 C 428.322 1807.94 456.857 1808.74 476.758 1806.65 C 478.588 1803.66 488.499 1793.2 491.355 1789.96 L 521.485 1755.78 C 527.669 1748.87 553.384 1717.61 559.022 1715.11 z"/>
<path transform="translate(0,0)" fill="#2E1457" d="M 476.758 1806.65 C 516.009 1808.38 563.839 1807.04 603.913 1807.02 L 838.584 1807.04 L 1569.69 1806.85 L 1569.89 1867.94 C 1569.92 1878.21 1569.57 1892.79 1570.33 1902.61 L 1569.43 1906.52 C 1562.3 1907.55 1545.19 1907.06 1537.33 1907.02 L 1478.74 1906.75 L 1284.75 1906.55 L 795.772 1906.51 L 588.479 1906.22 C 552.257 1906.27 512.936 1905.59 477.09 1906.86 C 477.245 1873.46 477.135 1840.05 476.758 1806.65 z"/>
<path transform="translate(0,0)" fill="#2E1457" d="M 1408.22 1498.11 C 1413.76 1500.92 1487.06 1579.97 1496.75 1590.61 L 1496.5 1592.92 C 1494.85 1607.23 1495.36 1627.28 1495.39 1641.92 L 1495.68 1714.94 C 1464.04 1715.77 1429.4 1715 1397.55 1714.97 L 1218.77 1714.94 L 559.022 1715.11 L 558.96 1594.35 C 569.158 1577.91 637.834 1514.36 638.258 1503.8 C 638.776 1504.94 639.082 1506.32 640.037 1506.36 C 676.788 1508.06 737.574 1506.56 772.495 1506.09 L 1273.5 1500.46 C 1290.01 1500.25 1399.81 1500.77 1408.22 1498.11 z"/>
<path transform="translate(0,0)" fill="#EDE0FD" d="M 1408.22 1498.11 C 1413.76 1500.92 1487.06 1579.97 1496.75 1590.61 L 1496.5 1592.92 C 1483.78 1593.73 1462.47 1593.16 1449.38 1593.16 L 1358.05 1593.14 L 1101.82 1593.7 L 724.255 1594.15 C 670.045 1594.15 612.67 1595.82 558.96 1594.35 C 569.158 1577.91 637.834 1514.36 638.258 1503.8 C 638.776 1504.94 639.082 1506.32 640.037 1506.36 C 676.788 1508.06 737.574 1506.56 772.495 1506.09 L 1273.5 1500.46 C 1290.01 1500.25 1399.81 1500.77 1408.22 1498.11 z"/>
<path transform="translate(0,0)" fill="#2E1457" d="M 710.158 1241.66 C 711.886 1265.42 709.392 1291.86 710.867 1315.17 L 1139.7 1312.93 L 1272.96 1311.98 L 1314.39 1311.96 C 1318.63 1311.95 1329.87 1312.58 1333.23 1310.91 C 1335.04 1308.28 1334.41 1303.87 1334.33 1300.42 C 1335.46 1305.79 1335.61 1307.56 1334.76 1313.03 C 1353.65 1333.01 1371.69 1354.11 1390.78 1373.93 C 1394.8 1378.1 1404.5 1390.72 1408.08 1392.95 C 1407.79 1425.44 1407.01 1465.84 1408.22 1498.11 C 1399.81 1500.77 1290.01 1500.25 1273.5 1500.46 L 772.495 1506.09 C 737.574 1506.56 676.788 1508.06 640.037 1506.36 C 639.082 1506.32 638.776 1504.94 638.258 1503.8 L 637.885 1397.13 C 656.894 1374.04 678.441 1351.42 697.5 1328.17 C 701.253 1323.59 705.235 1319.57 709.757 1315.73 C 709.674 1295.78 708.624 1260.44 710.158 1241.66 z"/>
<path transform="translate(0,0)" fill="#EDE0FD" d="M 710.158 1241.66 C 711.886 1265.42 709.392 1291.86 710.867 1315.17 L 1139.7 1312.93 L 1272.96 1311.98 L 1314.39 1311.96 C 1318.63 1311.95 1329.87 1312.58 1333.23 1310.91 C 1335.04 1308.28 1334.41 1303.87 1334.33 1300.42 C 1335.46 1305.79 1335.61 1307.56 1334.76 1313.03 C 1353.65 1333.01 1371.69 1354.11 1390.78 1373.93 C 1394.8 1378.1 1404.5 1390.72 1408.08 1392.95 C 1349.81 1394.38 1288.71 1393.84 1230.23 1394.2 L 955.59 1396.04 C 850.846 1396.37 742.348 1399.16 637.885 1397.13 C 656.894 1374.04 678.441 1351.42 697.5 1328.17 C 701.253 1323.59 705.235 1319.57 709.757 1315.73 C 709.674 1295.78 708.624 1260.44 710.158 1241.66 z"/>
<path transform="translate(0,0)" fill="#2E1457" d="M 1273.26 1156.17 C 1273.29 1146.87 1273.23 1137.79 1273.84 1128.49 C 1274.62 1137.65 1274.33 1147.27 1274.26 1156.5 C 1294.49 1175.67 1315.22 1202.78 1334.01 1219.85 C 1334.6 1242.75 1332.52 1279.85 1334.33 1300.42 C 1334.41 1303.87 1335.04 1308.28 1333.23 1310.91 C 1329.87 1312.58 1318.63 1311.95 1314.39 1311.96 L 1272.96 1311.98 L 1139.7 1312.93 L 710.867 1315.17 C 709.392 1291.86 711.886 1265.42 710.158 1241.66 C 710.133 1234.41 710.2 1227.17 710.358 1219.92 C 729.777 1200.77 747.915 1177.4 767.942 1158.47 C 767.883 1151.75 768.377 1145.63 768.852 1138.94 C 769.083 1144.35 768.958 1150.8 768.98 1156.3 C 832.379 1154.87 899.43 1155.95 963.168 1155.92 L 1273.26 1156.17 z"/>
<path transform="translate(0,0)" fill="#EDE0FD" d="M 1273.26 1156.17 C 1273.29 1146.87 1273.23 1137.79 1273.84 1128.49 C 1274.62 1137.65 1274.33 1147.27 1274.26 1156.5 C 1294.49 1175.67 1315.22 1202.78 1334.01 1219.85 C 1267.03 1221.35 1196.52 1219.92 1129.12 1219.96 L 710.358 1219.92 C 729.777 1200.77 747.915 1177.4 767.942 1158.47 C 767.883 1151.75 768.377 1145.63 768.852 1138.94 C 769.083 1144.35 768.958 1150.8 768.98 1156.3 C 832.379 1154.87 899.43 1155.95 963.168 1155.92 L 1273.26 1156.17 z"/>
<path transform="translate(0,0)" fill="#6C2BD9" d="M 1273.48 563.75 C 1284.72 560.489 1299.79 553.177 1310.85 548.202 C 1324.07 572.586 1335.05 596.261 1347.19 621.096 L 1393.95 715.94 L 1537.85 1007.81 L 1744.89 1424.81 C 1768.14 1472.01 1791.96 1518.96 1814.82 1566.32 C 1818.11 1573.15 1822.48 1580.8 1825.47 1587.36 C 1807.94 1595.2 1791.52 1602.2 1774.22 1610.67 C 1745.87 1551.09 1717.03 1491.74 1687.7 1432.64 C 1675.68 1408.43 1667.11 1387.3 1653.84 1363 L 1654.04 1640.93 C 1654.02 1692.53 1655.47 1752.11 1653.8 1803.05 C 1653.21 1837.61 1654.07 1874.15 1653.98 1908.95 L 1638.03 1908.48 L 1638.33 1803.1 C 1639.6 1690.38 1638.1 1576.27 1638.18 1463.5 L 1638.97 1369.16 C 1638.98 1363.66 1639.44 1332.62 1638.09 1328.99 C 1630.97 1309.89 1616.99 1283.36 1607.86 1264.68 L 1563.92 1172.59 C 1526.51 1092.82 1488.51 1013.33 1449.91 934.123 C 1442.54 919.102 1435.5 904.915 1428.51 889.689 C 1423.18 878.059 1415.68 860.662 1409.11 850.284 L 1408.94 1174.94 L 1392.87 1175.24 L 1393.01 932.192 C 1393.03 913.42 1395.05 817.57 1391.45 807.355 C 1385.78 791.244 1375.52 775.486 1368.03 760.008 L 1298.27 614.991 C 1293.18 604.177 1276.26 571.656 1273.48 563.75 z"/>
<path transform="translate(0,0)" fill="#6C2BD9" d="M 741.358 548.042 C 745.834 549.924 778.103 563.044 780.38 564.54 C 776.34 578.106 761.381 603.709 754.494 617.433 C 737.659 650.981 721.491 684.882 704.277 718.235 C 695.202 735.819 686.528 753.551 677.701 771.257 C 673.265 780.156 667.739 789.246 664.263 798.505 C 659.008 812.502 661.796 913.439 661.78 935.663 L 661.936 1181 L 645.021 1180.75 L 645.084 977.88 C 644.941 932.575 644.29 883.144 645.707 838.003 C 630.425 864.961 614.23 900.591 600.24 928.872 L 500.375 1134.91 L 439.198 1260.48 C 435.445 1268.12 409.24 1319.22 409.18 1321.49 C 404.894 1482.07 409.99 1647.47 407.727 1807.95 C 407.073 1839.74 409.255 1877.92 407.197 1909.01 L 393.02 1908.91 C 393.232 1875.34 393.225 1841.77 392.996 1808.2 L 393.319 1495.14 C 393.208 1450.09 394.292 1401.11 392.777 1356.55 L 295.853 1553.03 C 286.524 1571.55 277.3 1591.72 267.658 1609.77 C 252.478 1602.26 233.833 1592.79 217.873 1587.21 C 262.426 1501.58 306.007 1415.46 348.607 1328.84 L 528.796 972.831 L 658.26 713.869 L 710.467 610.194 C 720.598 590.142 732.375 568.508 741.358 548.042 z"/>
<path transform="translate(0,0)" fill="#2E1457" d="M 769.236 1068.28 C 771.917 1065.65 784.837 1053.68 787.126 1052.18 C 795.419 1046.75 821.487 1016.51 828.597 1014.84 C 831.803 1016.72 891.93 1015.45 900.182 1015.41 L 1026.99 1015.6 L 1151.91 1015.92 C 1170.13 1015.93 1197.15 1016.78 1214.81 1015.87 C 1219.86 1017.79 1273.27 1064.93 1274.58 1067.98 C 1273.28 1084.09 1273.6 1111.93 1273.84 1128.49 C 1273.23 1137.79 1273.29 1146.87 1273.26 1156.17 L 963.168 1155.92 C 899.43 1155.95 832.379 1154.87 768.98 1156.3 C 768.958 1150.8 769.083 1144.35 768.852 1138.94 C 769.81 1117.62 769.138 1090.08 769.236 1068.28 z"/>
<path transform="translate(0,0)" fill="#EDE0FD" d="M 769.236 1068.28 C 771.917 1065.65 784.837 1053.68 787.126 1052.18 C 795.419 1046.75 821.487 1016.51 828.597 1014.84 C 831.803 1016.72 891.93 1015.45 900.182 1015.41 L 1026.99 1015.6 L 1151.91 1015.92 C 1170.13 1015.93 1197.15 1016.78 1214.81 1015.87 C 1219.86 1017.79 1273.27 1064.93 1274.58 1067.98 C 1253.87 1069.65 1222.48 1068.79 1200.82 1068.81 L 1071.22 1068.91 L 881.777 1068.97 C 845.154 1068.96 805.637 1069.64 769.236 1068.28 z"/>
<path transform="translate(0,0)" fill="#6C2BD9" d="M 829.867 928.488 C 923.989 930.446 1022.83 928.442 1117.21 928.681 C 1136.44 928.808 1155.66 928.689 1174.89 928.327 C 1186.7 928.145 1203.36 927.527 1214.84 928.266 C 1216.07 954.559 1214.98 988.914 1214.81 1015.87 C 1197.15 1016.78 1170.13 1015.93 1151.91 1015.92 L 1026.99 1015.6 L 900.182 1015.41 C 891.93 1015.45 831.803 1016.72 828.597 1014.84 C 829.897 1004.5 827.651 931.718 829.867 928.488 z"/>
<path transform="translate(0,0)" fill="#EDE0FD" d="M 865.16 889.05 L 1074.68 888.958 C 1106.33 888.898 1146.34 887.147 1176.64 888.152 C 1181.6 893.027 1210.97 923.166 1214.84 928.266 C 1203.36 927.527 1186.7 928.145 1174.89 928.327 C 1155.66 928.689 1136.44 928.808 1117.21 928.681 C 1022.83 928.442 923.989 930.446 829.867 928.488 C 838.729 918.636 856.467 897.227 865.16 889.05 z"/>
<path transform="translate(0,0)" fill="#EDE0FD" d="M 699.437 1218.4 C 699.749 1218.35 700.062 1218.3 700.375 1218.26 C 700.483 1218.66 700.296 1218.99 700.165 1219.46 C 699.579 1219.88 699.804 1219.78 699.452 1219.88 C 699.414 1219.73 699.376 1219.59 699.338 1219.44 C 699.371 1219.09 699.404 1218.75 699.437 1218.4 z"/>
</svg>