<svg version="1.1" xmlns="http://www.w3.org/2000/svg" style="display: block;" viewBox="0 0 2048 2048" width="1024" height="1024" preserveAspectRatio="none" xmlns:c2pa="http://c2pa.org/manifest"><metadata><c2pa:manifest>AAAMZ2p1bWIAAAAeanVtZGMycGEAEQAQgAAAqgA4m3EDYzJwYQAAAAxBanVtYgAAAEdqdW1kYzJtYQARABCAAACqADibcQN1cm46YzJwYTpiZWRhZGM3OC1lMDI5LTRiMjgtYTczMC0wN2M0MzU2ODA4OTgAAAAB4mp1bWIAAAApanVtZGMyYXMAEQAQgAAAqgA4m3EDYzJwYS5hc3NlcnRpb25zAAAAAO1qdW1iAAAAQWp1bWRjYm9yABEAEIAAAKoAOJtxE2MycGEuYWN0aW9ucy52MgAAAAAYYzJzaG7gPiaI/yEGMmiNpLdH/jcAAACkY2JvcqFnYWN0aW9uc4GjZmFjdGlvbmxjMnBhLmNyZWF0ZWRxZGlnaXRhbFNvdXJjZVR5cGV4Rmh0dHA6Ly9jdi5pcHRjLm9yZy9uZXdzY29kZXMvZGlnaXRhbHNvdXJjZXR5cGUvdHJhaW5lZEFsZ29yaXRobWljTWVkaWFrZGVzY3JpcHRpb252Q3JlYXRlZCBieSBSZWNyYWZ0IEFJLgAAAMRqdW1iAAAAQGp1bWRjYm9yABEAEIAAAKoAOJtxE2MycGEuaGFzaC5kYXRhAAAAABhjMnNohR+SwXYoc7YNCXwBbcteAQAAAHxjYm9ypWpleGNsdXNpb25zgaJlc3RhcnQY22ZsZW5ndGgZEIxkbmFtZW5qdW1iZiBtYW5pZmVzdGNhbGdmc2hhMjU2ZGhhc2hYIDnkR4a6HkSkcmBMGqg17UwvolPFy/3TAydgijFSlMoWY3BhZEkAAAAAAAAAAAAAAAI0anVtYgAAACdqdW1kYzJjbAARABCAAACqADibcQNjMnBhLmNsYWltLnYyAAAAAgVjYm9ypmppbnN0YW5jZUlEeCx4bXA6aWlkOjdhNGYxNWRiLThmNmItNDJiNy1iZmE4LWExOWFlYmZjZDFjM3RjbGFpbV9nZW5lcmF0b3JfaW5mb6NkbmFtZWpyZWNyYWZ0LmFpZ3ZlcnNpb254KDgxY2U4MmUyYzVjM2NiZmJlOGM2ZmJlMTc5ZDVmOGQ5MWM0MDljZTF3b3JnLmNvbnRlbnRhdXRoLmMycGFfcnNmMC45MC43aXNpZ25hdHVyZXhNc2VsZiNqdW1iZj0vYzJwYS91cm46YzJwYTpiZWRhZGM3OC1lMDI5LTRiMjgtYTczMC0wN2M0MzU2ODA4OTgvYzJwYS5zaWduYXR1cmVyY3JlYXRlZF9hc3NlcnRpb25zgqJjdXJseCpzZWxmI2p1bWJmPWMycGEuYXNzZXJ0aW9ucy9jMnBhLmFjdGlvbnMudjJkaGFzaFggfajp0SEUyigiUOFh/tEVLy/zA/1/MizloSPF9gtuhWWiY3VybHgpc2VsZiNqdW1iZj1jMnBhLmFzc2VydGlvbnMvYzJwYS5oYXNoLmRhdGFkaGFzaFggmSjtByT4fYXizuGL/iaMu1gFblY+YPEABvo1MJJK02NoZGM6dGl0bGV4GlJlY3JhZnQgQUkgR2VuZXJhdGVkIEltYWdlY2FsZ2ZzaGEyNTYAAAfcanVtYgAAAChqdW1kYzJjcwARABCAAACqADibcQNjMnBhLnNpZ25hdHVyZQAAAAesY2JvctKEWQOwogEmGCGCWQHnMIIB4zCCAYmgAwIBAgIJALfeWmNDUW56MAoGCCqGSM49BAMCMEAxHzAdBgNVBAMMFlJlY3JhZnQgU3RhZ2luZyBEZXYgQ0ExEDAOBgNVBAoMB1JlY3JhZnQxCzAJBgNVBAYTAlVTMB4XDTI2MDYxMjE5NDM1MFoXDTI3MDYxMjE5NDM1MFowNzELMAkGA1UEBhMCVVMxEzARBgNVBAoTClJlY3JhZnQgQUkxEzARBgNVBAMTCnJlY3JhZnQuYWkwWTATBgcqhkjOPQIBBggqhkjOPQMBBwNCAARKaTVbACsg/DeG3LeOxYdID/VA6EFG73E6Oknb+KIiCFJygRUz4ueN2z/t2qYb6CIUvS8RvgOiiClfoqsYtw81o3UwczAMBgNVHRMBAf8EAjAAMA4GA1UdDwEB/wQEAwIGwDATBgNVHSUEDDAKBggrBgEFBQcDBDAdBgNVHQ4EFgQULzHpBen96SL1y4IPHa8MkMshXf0wHwYDVR0jBBgwFoAUAgsqOBrKqpdK//m/kxZo7ZR4ebcwCgYIKoZIzj0EAwIDSAAwRQIgU8hKW0aXvvk8SQgVFNkax69Ym9ae8GsT2RZTQw+B51ACIQC0D4BkEoRD4N0r2ZRkNy0HZaW3WICy/QZGN95ilF4yzFkBvTCCAbkwggFfoAMCAQICCQCc+Wg7T6ATbzAKBggqhkjOPQQDAjBAMR8wHQYDVQQDDBZSZWNyYWZ0IFN0YWdpbmcgRGV2IENBMRAwDgYDVQQKDAdSZWNyYWZ0MQswCQYDVQQGEwJVUzAeFw0yNjA2MTIxOTQwMTZaFw0yODA2MTExOTQwMTZaMEAxHzAdBgNVBAMMFlJlY3JhZnQgU3RhZ2luZyBEZXYgQ0ExEDAOBgNVBAoMB1JlY3JhZnQxCzAJBgNVBAYTAlVTMFkwEwYHKoZIzj0CAQYIKoZIzj0DAQcDQgAEQ9IQBlcVbKaKPYrQSfOhL/00s7xUDC7RinIuLO/I1k99y9yh6oWF9kPxaP+tx1v1PeOL3yrVquJ730H0ZGiDyqNCMEAwDwYDVR0TAQH/BAUwAwEB/zAOBgNVHQ8BAf8EBAMCAYYwHQYDVR0OBBYEFAILKjgayqqXSv/5v5MWaO2UeHm3MAoGCCqGSM49BAMCA0gAMEUCIFQwNImLlYDeQhjgF+ZiqTbgcuzSqmOJw3Q2lQ/hu83FAiEA9O8cLm/xfoVLqB4jtdbuHzi3WL+p2RN+DRGkwpYswVuhY3BhZFkDpAAAAAAAAAAAAAAAAAAAAAAAAAAAAAAAAAAAAAAAAAAAAAAAAAAAAAAAAAAAAAAAAAAAAAAAAAAAAAAAAAAAAAAAAAAAAAAAAAAAAAAAAAAAAAAAAAAAAAAAAAAAAAAAAAAAAAAAAAAAAAAAAAAAAAAAAAAAAAAAAAAAAAAAAAAAAAAAAAAAAAAAAAAAAAAAAAAAAAAAAAAAAAAAAAAAAAAAAAAAAAAAAAAAAAAAAAAAAAAAAAAAAAAAAAAAAAAAAAAAAAAAAAAAAAAAAAAAAAAAAAAAAAAAAAAAAAAAAAAAAAAAAAAAAAAAAAAAAAAAAAAAAAAAAAAAAAAAAAAAAAAAAAAAAAAAAAAAAAAAAAAAAAAAAAAAAAAAAAAAAAAAAAAAAAAAAAAAAAAAAAAAAAAAAAAAAAAAAAAAAAAAAAAAAAAAAAAAAAAAAAAAAAAAAAAAAAAAAAAAAAAAAAAAAAAAAAAAAAAAAAAAAAAAAAAAAAAAAAAAAAAAAAAAAAAAAAAAAAAAAAAAAAAAAAAAAAAAAAAAAAAAAAAAAAAAAAAAAAAAAAAAAAAAAAAAAAAAAAAAAAAAAAAAAAAAAAAAAAAAAAAAAAAAAAAAAAAAAAAAAAAAAAAAAAAAAAAAAAAAAAAAAAAAAAAAAAAAAAAAAAAAAAAAAAAAAAAAAAAAAAAAAAAAAAAAAAAAAAAAAAAAAAAAAAAAAAAAAAAAAAAAAAAAAAAAAAAAAAAAAAAAAAAAAAAAAAAAAAAAAAAAAAAAAAAAAAAAAAAAAAAAAAAAAAAAAAAAAAAAAAAAAAAAAAAAAAAAAAAAAAAAAAAAAAAAAAAAAAAAAAAAAAAAAAAAAAAAAAAAAAAAAAAAAAAAAAAAAAAAAAAAAAAAAAAAAAAAAAAAAAAAAAAAAAAAAAAAAAAAAAAAAAAAAAAAAAAAAAAAAAAAAAAAAAAAAAAAAAAAAAAAAAAAAAAAAAAAAAAAAAAAAAAAAAAAAAAAAAAAAAAAAAAAAAAAAAAAAAAAAAAAAAAAAAAAAAAAAAAAAAAAAAAAAAAAAAAAAAAAAAAAAAAAAAAAAAAAAAAAAAAAAAAAAAAAAAAAAAAAAAAAAAAAAAAAAAAAAAAAAAAAAAAAAAAAAAAAAAAAAAAAAAAAAAAAAAAAAAAAAAAAAAAAAAAAAAAAAAAAAAAAAAAAAAAAAAAAAAAAAAAAAAAAAAAAAAAAAAAAAAAAAAAAAAAAAAAAAAAAAAAA9lhAAMDhOXyBBfVGF7urwoqO8pYdqo9/bcavD+eFsC2QPJ+zA5TbvepU7GFbx3Kf+VWsIp4iU59b4Iq3/BhjMk4jCg==</c2pa:manifest></metadata>
<path transform="translate(0,0)" fill="rgb(193,120,219)" d="M 0 0 L 2048 0 L 2048 1942.74 L 2048 1962.93 L 2048 2048 L 0 2048 L 0 1962.94 L 0 1942.55 L 0 0 z"/>
<path transform="translate(0,0)" fill="rgb(70,0,147)" d="M 120.806 351.743 L 1927.13 351.219 C 1926.87 381.994 1923.68 413.86 1919.51 444.332 C 1892.83 634.372 1805.23 810.629 1669.84 946.638 C 1559.43 1055.44 1407.28 1153.33 1252.94 1182.49 C 1257.02 1185.5 1258.19 1184.23 1264.02 1184.87 C 1344.07 1185.37 1424.13 1185.41 1504.18 1184.99 C 1485.32 1205.52 1465.32 1224.45 1445.52 1244.03 C 1414.1 1275.39 1382.5 1306.58 1350.73 1337.59 C 1278.37 1410.31 1205.44 1482.46 1131.95 1554.04 C 1295.08 1594.14 1418.21 1709.45 1461.26 1872.78 C 1464.97 1887.21 1468.08 1901.78 1470.58 1916.47 C 1471.39 1921.3 1473.32 1940.55 1475.77 1943.06 C 1453.19 1940.91 1408.55 1942.5 1384.07 1942.47 L 1191.27 1942.97 L 813.918 1942.98 C 735.306 1942.98 652.967 1944.17 574.662 1942.91 C 577.463 1901.43 591.863 1849.16 608.008 1811.52 C 654.172 1703.88 739.52 1620.84 847.969 1576.82 C 861.516 1570.67 875.413 1566.51 889.586 1562.21 C 899.051 1559.33 910.617 1556.94 919.5 1553.12 C 882.356 1516.29 844.947 1479.73 807.277 1443.44 L 543.327 1185.02 L 788.762 1184.87 C 793.329 1184.24 795.004 1184.97 798.906 1182.62 C 457.921 1108.96 183.279 803.056 131.129 460.257 C 125.594 423.874 121.279 388.542 120.806 351.743 z"/>
<path transform="translate(0,0)" fill="rgb(165,88,216)" d="M 1238.24 1185.73 C 1242.47 1184.65 1246.65 1183.33 1250.99 1182.77 L 1252.94 1182.49 C 1257.02 1185.5 1258.19 1184.23 1264.02 1184.87 C 1255.78 1185.3 1246.84 1185.36 1238.24 1185.73 z"/>
<path transform="translate(0,0)" fill="rgb(165,88,216)" d="M 798.906 1182.62 C 802.555 1183.15 805.264 1183.96 808.813 1184.82 C 801.939 1185 795.668 1185.09 788.762 1184.87 C 793.329 1184.24 795.004 1184.97 798.906 1182.62 z"/>
<path transform="translate(0,0)" fill="rgb(193,120,219)" d="M 1475.77 1943.06 C 1494.23 1941.65 1523.91 1942.48 1543.1 1942.46 L 1668.82 1942.36 L 2048 1942.74 L 2048 1962.93 L 2048 2048 L 0 2048 L 0 1962.94 L 0 1942.55 L 385.931 1942.44 L 512.044 1942.62 C 530.119 1942.65 557.379 1941.72 574.662 1942.91 C 652.967 1944.17 735.306 1942.98 813.918 1942.98 L 1191.27 1942.97 L 1384.07 1942.47 C 1408.55 1942.5 1453.19 1940.91 1475.77 1943.06 z"/>
<path transform="translate(0,0)" fill="rgb(52,1,133)" d="M 1475.77 1943.06 C 1494.23 1941.65 1523.91 1942.48 1543.1 1942.46 L 1668.82 1942.36 L 2048 1942.74 L 2048 1962.93 L 0 1962.94 L 0 1942.55 L 385.931 1942.44 L 512.044 1942.62 C 530.119 1942.65 557.379 1941.72 574.662 1942.91 C 652.967 1944.17 735.306 1942.98 813.918 1942.98 L 1191.27 1942.97 L 1384.07 1942.47 C 1408.55 1942.5 1453.19 1940.91 1475.77 1943.06 z"/>
</svg>