<svg xmlns="http://www.w3.org/2000/svg" viewBox="0 0 1700 200" width="1700" height="200">
<rect width="100%" height="100%" fill="#fefefe"/>
<text x="10" y="22" font-size="14" font-weight="600" fill="#222">Hull profiles — each in a 400×160 centre-origin box</text>
<g transform="translate(10, 10)"><rect x="-200.0" y="-80.0" width="400" height="160" fill="none" stroke="#ccc" stroke-width="1"/><path d="M -200.0 -80.0 L 200.0 -80.0 C 176.0 32.0, 104.0 80.0, 0 80.0 C -104.0 80.0, -176.0 32.0, -200.0 -80.0 Z" fill="#2B1553" opacity="0.85" stroke="#000" stroke-width="1"/><text x="0" y="100" text-anchor="middle" font-size="11" fill="#333">Current symmetric</text></g><g transform="translate(430, 10)"><rect x="-200.0" y="-80.0" width="400" height="160" fill="none" stroke="#ccc" stroke-width="1"/><path d="M -200.0 -40.0 L 60.0 -40.0 C 80.0 -76.0, 100.0 -76.0, 120.0 -40.0 C 140.0 8.0, 100.0 60.0, 0 56.0 C -80.0 48.0, -160.0 12.0, -200.0 -40.0 Z" fill="#6C2BD9" opacity="0.85" stroke="#000" stroke-width="1"/><text x="0" y="100" text-anchor="middle" font-size="11" fill="#333">Curled prow v1</text></g><g transform="translate(850, 10)"><rect x="-200.0" y="-80.0" width="400" height="160" fill="none" stroke="#ccc" stroke-width="1"/><path d="M -200.0 -28.0 L 80.0 -28.0 C 100.0 -80.0, 140.0 -68.0, 160.0 -24.0 C 180.0 16.0, 120.0 64.0, 0 60.0 C -80.0 52.0, -180.0 12.0, -200.0 -28.0 Z" fill="#C4AAF3" opacity="0.85" stroke="#000" stroke-width="1"/><text x="0" y="100" text-anchor="middle" font-size="11" fill="#333">Curled prow v2</text></g><g transform="translate(1270, 10)"><rect x="-200.0" y="-80.0" width="400" height="160" fill="none" stroke="#ccc" stroke-width="1"/><path d="M -200.0 -80.0 L 100.0 -80.0 C 120.0 -64.0, 140.0 -48.0, 160.0 -24.0 C 180.0 8.0, 140.0 72.0, 0 64.0 C -80.0 56.0, -160.0 24.0, -200.0 -80.0 Z" fill="#20B2AA" opacity="0.85" stroke="#000" stroke-width="1"/><text x="0" y="100" text-anchor="middle" font-size="11" fill="#333">Top-deck asymmetric</text></g>
</svg>